<svg xmlns="http://www.w3.org/2000/svg" xml:space="preserve" viewBox="0 0 164.61529 113.23678"><path fill="#FC0" d="M82.36655.000805c-1.22689-.033-2.23948.952396-2.23914 2.179195-.00038 24.76669125-.00049 46.232104-.00052 70.811698a6.6145835 6.6145835 0 0 0-4.56251 6.284888 6.6145835 6.6145835 0 0 0 6.61458 6.614583 6.6145835 6.6145835 0 0 0 6.61459-6.614583 6.6145835 6.6145835 0 0 0-4.30517-6.194454c-.0001-17.076833.0005-32.392211 0-47.7050986l18.25419-10.3156494c1.70555-.773807 1.70555-3.195458 0-3.969267L83.20939.195108c-.26523-.12044-.55164-.186473-.84284-.194303m50.07963 92.386608c-.38806 0-.70546.123577-.9524.37052-.2293.229306-.34416.537988-.34416.926042v18.071248c0 .388055.11486.705453.34416.952397.24694.229305.56434.343648.9524.343648.38805 0 .69673-.114343.92604-.343648.24694-.246944.37052-.564342.37052-.952397v-4.048331l1.32292-1.16427 5.02708 6.217708c.24695.3175.56434.476457.9524.476457.29986 0 .58187-.106144.84646-.31781.3175-.264583.47645-.590697.47645-.978752 0-.317499-.0969-.582083-.29093-.79375l-5.13302-6.29729 4.86843-4.338753c.28223-.229305.42323-.529271.42323-.899687 0-.317499-.11486-.5908-.34416-.820105-.22931-.282222-.52928-.423747-.89969-.423747-.3175 0-.5908.11486-.8201.344165l-6.42907 5.741252V93.683975c0-.388054-.12358-.696736-.37052-.926042-.22931-.246943-.53799-.37052-.92604-.37052m-7.06469 6.032707c-.88194 0-1.71056.17639-2.48667.529167s-1.42885.837849-1.95802 1.455208v-.502812c0-.881942-.44097-1.322916-1.32291-1.322916-.42334 0-.74996.11486-.97927.344165s-.34365.555419-.34365.978751v11.826669c0 .440971.11434.776318.34365 1.005623.22931.211667.55593.317293.97927.317293.44097 0 .76708-.114343.97875-.343648.2293-.229305.34416-.555936.34416-.979268v-7.725627c0-.987776.38816-1.772814 1.16427-2.354895.77611-.582082 1.79907-.872815 3.06907-.872815.44097 0 1.01424.06153 1.71979.185002.17639.03528.30867.05271.39687.05271.5468 0 .89958-.282017 1.05834-.84646.0177-.05292.0264-.141112.0264-.264584 0-.423332-.26458-.776111-.79375-1.058333-.52916-.282222-1.26087-.42323-2.19573-.42323zm-43.36479.02635c-.74083 0-1.42896.132292-2.06396.396875-.635.246944-1.18159.599723-1.64021 1.058333-.0176-.388055-.14993-.696736-.39687-.926041-.24695-.246944-.56435-.37052-.9524-.37052s-.71468.123576-.97927.37052c-.24694.246944-.37052.573058-.37052.978751v11.773959c0 .388054.12358.714685.37052.979268.26459.246944.59122.37052.97927.37052.40569 0 .73181-.123576.97875-.37052.24694-.264583.37052-.591214.37052-.979268v-7.461044c0-.987775.29073-1.798961.87282-2.43396.59972-.634998 1.36732-.952913 2.30218-.952913.89958 0 1.61386.282534 2.14302.846977.54681.546805.82011 1.35799.82011 2.43396v7.56698c0 .388054.12358.714685.37052.979268.26459.246944.5907.37052.97875.37052.40569 0 .73232-.123576.97927-.37052.24695-.264583.37052-.591214.37052-.979268v-7.461044c0-.987775.29073-1.798961.87281-2.43396.59972-.634998 1.3581-.952913 2.27532-.952913.89958 0 1.61437.282534 2.14354.846977.5468.546805.8201 1.35799.8201 2.43396v7.56698c0 .388054.12357.714685.37052.979268.26458.246944.59069.37052.97875.37052.4057 0 .73181-.123576.97875-.37052.24695-.264583.37052-.591214.37052-.979268v-7.56698c0-1.799163-.47635-3.201564-1.42885-4.206979-.93486-1.005414-2.16959-1.507918-3.70417-1.507918-.97013 0-1.85208.185105-2.64583.555522-.79375.370415-1.45521.882152-1.98437 1.53479-.45862-.670276-1.04931-1.182013-1.77251-1.53479-.70555-.370417-1.50802-.555522-2.4076-.555522m24.97677.02636c-1.35819 0-2.60215.326631-3.73104.979268-1.11124.634999-1.98396 1.516947-2.61896 2.645834-.635 1.111247-.95291 2.354691-.95291 3.730521s.29124 2.627991.87333 3.756877c.59972 1.111248 1.41091 1.98448 2.43396 2.619478 1.04069.634999 2.19645.952397 3.46645.952397 1.02305 0 1.97525-.211771 2.85719-.635103.88195-.423333 1.6316-1.014032 2.24896-1.772502v.978752c0 .388054.12357.714685.37052.979268.26458.246944.5907.37052.97875.37052.38806 0 .70598-.123576.95292-.37052.26458-.264583.39687-.591214.39687-.979268v-5.899899c0-1.37583-.32663-2.619274-.97927-3.730521-.635-1.128887-1.50823-2.010835-2.61948-2.645834-1.09361-.652637-2.3191-.979268-3.67729-.979268m44.29084 0c-.93486 0-1.81681.150241-2.64584.450102-.82902.29986-1.4992.749551-2.01073 1.349271-.51152.599721-.76739 1.331428-.76739 2.195732 0 2.134301 1.69365 3.527986 5.08031 4.180623 1.30528.246944 2.23132.555626 2.77812.926042.54681.352777.82011.802468.82011 1.349272 0 .564443-.28253 1.014134-.84698 1.349271-.5468.335139-1.3226.502812-2.32802.502812-.75847 0-1.47274-.132292-2.14302-.396875-.67028-.282221-1.1733-.608335-1.50844-.978752-.3175-.317499-.65233-.476456-1.00511-.476456-.28222 0-.5909.123576-.92604.37052-.35277.264583-.52916.608646-.52916 1.031978 0 .317499.11434.5908.34364.820105.59973.599721 1.42887 1.084792 2.48719 1.455208 1.05833.370416 2.18743.555522 3.38687.555522s2.2224-.185106 3.06907-.555522c.8643-.388055 1.51705-.908507 1.95802-1.561145.44097-.670276.66146-1.411216.66146-2.222603 0-1.093609-.40612-1.984273-1.2175-2.672188-.79375-.687915-2.15153-1.2258-4.07417-1.613855-.93486-.194027-1.64965-.38785-2.14354-.581877-.49389-.211666-.82871-.432153-1.00511-.661458-.17638-.246944-.26458-.54691-.26458-.899687 0-.493887.25587-.873332.7674-1.137915.52916-.282222 1.19934-.42323 2.01073-.42323.70555 0 1.30496.08819 1.79885.264583.49389.15875.96153.440767 1.4025.84646.37041.335139.78472.502812 1.24334.502812.29986 0 .54701-.07024.74104-.211357.29986-.246943.44958-.520761.44958-.820621 0-.282222-.11434-.564239-.34365-.84646-.52916-.652638-1.25267-1.164375-2.16989-1.53479-.89958-.370416-1.92254-.555522-3.06906-.555522m-44.29084 2.38125c.88195 0 1.6757.220488 2.38125.661458.72319.423333 1.28723 1.014548 1.69292 1.773019.40569.75847.60875 1.605037.60875 2.539896 0 .93486-.20306 1.781427-.60875 2.539897-.40569.740831-.96973 1.33153-1.69292 1.772502-.70555.423332-1.4993.635103-2.38125.635103-.88194 0-1.68493-.211771-2.40812-.635103-.70556-.440972-1.26959-1.031671-1.69292-1.772502-.4057-.75847-.60875-1.605037-.60875-2.539897 0-.934859.20305-1.781426.60875-2.539896.42333-.758471.98736-1.349686 1.69292-1.773019.72319-.44097 1.52618-.661458 2.40812-.661458"/><path fill="#D1D1D1" d="M51.43304 27.35624073c-1.49969 0-2.70733 1.20712806-2.70733 2.70681147V68.305679c0 1.499684 1.20764 2.706812 2.70733 2.706812 1.49967 0 2.70681-1.207128 2.70681-2.706812V30.0630522c0-1.49968341-1.20714-2.70681147-2.70681-2.70681147m52.00406 0c-1.49969 0-2.70733 1.20712806-2.70733 2.70681147V68.305679c0 1.499684 1.20764 2.706812 2.70733 2.706812 1.49968 0 2.70681-1.207128 2.70681-2.706812V30.0630522c0-1.49968341-1.20713-2.70681147-2.70681-2.70681147M41.68738 33.3093657c-1.49969 0-2.70681 1.207128-2.70681 2.7068115V62.352554c0 1.499684 1.20712 2.706812 2.70681 2.706812 1.49968 0 2.70733-1.207128 2.70733-2.706812V36.0161772c0-1.4996835-1.20765-2.7068115-2.70733-2.7068115m19.4908 1.984375c-1.49969 0-2.70733 1.2071283-2.70733 2.7068113v22.367627c0 1.499684 1.20764 2.706812 2.70733 2.706812 1.49968 0 2.70681-1.207128 2.70681-2.706812V38.000552c0-1.499683-1.20713-2.7068113-2.70681-2.7068113m61.7492 0c-1.49968 0-2.70681 1.2071283-2.70681 2.7068113v22.367627c0 1.499684 1.20713 2.706812 2.70681 2.706812 1.49969 0 2.70733-1.207128 2.70733-2.706812V38.000552c0-1.499683-1.20764-2.7068113-2.70733-2.7068113m-9.74514.6614584c-1.49969 0-2.70681 1.2071283-2.70681 2.7068119v21.04471c0 1.499683 1.20712 2.706811 2.70681 2.706811 1.49968 0 2.70681-1.207128 2.70681-2.706811v-21.04471c0-1.4996836-1.20713-2.7068119-2.70681-2.7068119M22.19709 39.262491c-1.49967 0-2.70681 1.207128-2.70681 2.706811v14.430127c0 1.499684 1.20714 2.706812 2.70681 2.706812 1.49969 0 2.70733-1.207128 2.70733-2.706812V41.969302c0-1.499683-1.20764-2.706811-2.70733-2.706811m9.74515 0c-1.49969 0-2.70682 1.207128-2.70682 2.706811v14.430127c0 1.499684 1.20713 2.706812 2.70682 2.706812 1.49967 0 2.70732-1.207128 2.70732-2.706812V41.969302c0-1.499683-1.20765-2.706811-2.70732-2.706811m100.73028.661458c-1.49968 0-2.70681 1.207128-2.70681 2.706812v13.10721c0 1.499683 1.20713 2.706811 2.70681 2.706811 1.49969 0 2.70733-1.207128 2.70733-2.706811v-13.10721c0-1.499684-1.20764-2.706812-2.70733-2.706812m-61.7492 1.984375c-1.49969 0-2.70681 1.207128-2.70681 2.706812v9.13846c0 1.499683 1.20712 2.706811 2.70681 2.706811 1.49968 0 2.70681-1.207128 2.70681-2.706811v-9.13846c0-1.499684-1.20713-2.706812-2.70681-2.706812m22.76864 0c-1.49969 0-2.70733 1.207128-2.70733 2.706812v9.13846c0 1.499683 1.20764 2.706811 2.70733 2.706811 1.49967 0 2.70681-1.207128 2.70681-2.706811v-9.13846c0-1.499684-1.20714-2.706812-2.70681-2.706812m48.72622 0c-1.49968 0-2.70733 1.207128-2.70733 2.706812v9.13846c0 1.499683 1.20765 2.706811 2.70733 2.706811 1.49969 0 2.70681-1.207128 2.70681-2.706811v-9.13846c0-1.499684-1.20712-2.706812-2.70681-2.706812M12.45195 43.231241c-1.49968 0-2.70681 1.207128-2.70681 2.706811v6.492627c0 1.499684 1.20713 2.706812 2.70681 2.706812 1.49969 0 2.70733-1.207128 2.70733-2.706812v-6.492627c0-1.499683-1.20764-2.706811-2.70733-2.706811m139.71137 1.322916c-1.49968 0-2.70733 1.207128-2.70733 2.706812v3.846794c0 1.499683 1.20765 2.706811 2.70733 2.706811 1.49969 0 2.70681-1.207128 2.70681-2.706811v-3.846794c0-1.499684-1.20712-2.706812-2.70681-2.706812M2.70681 46.477554C1.20716 46.477554 0 47.684717 0 49.184366c0 1.499648 1.20716 2.706811 2.70681 2.706811s2.70733-1.207163 2.70733-2.706811c0-1.499649-1.20768-2.706812-2.70733-2.706812m159.20165 0c-1.49964 0-2.70681 1.207163-2.70681 2.706812 0 1.499648 1.20717 2.706811 2.70681 2.706811 1.49965 0 2.70682-1.207163 2.70682-2.706811 0-1.499649-1.20717-2.706812-2.70682-2.706812M34.70899 98.47283c-1.35819 0-2.60163.326631-3.73052.979268-1.11125.634999-1.98448 1.516947-2.61948 2.645834-.63499 1.111247-.95239 2.354691-.95239 3.730521s.29125 2.627991.87333 3.756877c.59972 1.111248 1.41091 1.98448 2.43396 2.619478 1.04069.634999 2.19594.952397 3.46594.952397 1.02305 0 1.97576-.211771 2.8577-.635103.88194-.423333 1.6316-1.014032 2.24896-1.772502v.978752c0 .388054.12357.714685.37052.979268.26458.246944.59069.37052.97875.37052s.70546-.123576.9524-.37052c.26459-.264583.39687-.591214.39687-.979268v-5.899899c0-1.37583-.32611-2.619274-.97875-3.730521-.635-1.128887-1.50823-2.010835-2.61948-2.645834-1.0936-.652637-2.31962-.979268-3.67781-.979268m30.87719 0c-1.37583 0-2.61056.317399-3.70417.952397-1.07597.61736-1.92254 1.490592-2.5399 2.619478-.59972 1.111248-.89968 2.372641-.89968 3.783748 0 1.411108.31739 2.671985.95239 3.783232.65264 1.111248 1.55203 1.98448 2.69855 2.619478 1.14652.61736 2.4433.926042 3.88968.926042.8114 0 1.65796-.149725 2.5399-.449585.89958-.29986 1.64924-.688021 2.24896-1.16427.28222-.211666.42323-.476251.42323-.79375 0-.335138-.15896-.635104-.47646-.899687-.19403-.176388-.45861-.264583-.79375-.264583s-.62587.09691-.87281.290938c-.37042.282222-.84678.520658-1.42886.714685-.56444.194028-1.11104.290939-1.64021.290939-1.34055 0-2.47837-.379445-3.41323-1.137915-.91721-.758471-1.47305-1.754762-1.66708-2.989482h10.05417c.35277 0 .64402-.106144.87333-.31781.22931-.229305.34365-.511322.34365-.84646 0-1.393469-.26458-2.628197-.79375-3.704167-.52917-1.075969-1.28754-1.91382-2.27531-2.513541-.98778-.599721-2.16046-.899687-3.51865-.899687m-57.01771.105937c-.74083 0-1.11104.370212-1.11104 1.111043 0 .264583.0349.511735.10542.74104l3.91604 11.747603c.0882.246944.24664.458715.47594.635104.24694.15875.51153.237711.79375.237711s.53809-.07896.76739-.237711c.24695-.176389.41462-.38816.50281-.635104l2.72542-9.604581 2.5926 9.604581c.0706.246944.2208.458715.45011.635104.24694.15875.52024.237711.8201.237711.28222 0 .53809-.07896.7674-.237711.2293-.176389.38774-.38816.47594-.635104l3.91604-11.747603c.0882-.229305.13229-.485173.13229-.767395 0-.335138-.0969-.599723-.29094-.79375-.17639-.194027-.45021-.290938-.82062-.290938-.67028 0-1.12869.405593-1.37563 1.21698l-2.91042 9.10177-2.38125-9.313127c-.0882-.29986-.24715-.538296-.47645-.714685-.21167-.194027-.48497-.290938-.82011-.290938-.35277 0-.64351.09691-.87281.290938-.21167.176389-.36191.414825-.4501.714685l-2.69855 9.128125-2.8577-8.916768c-.14111-.423333-.32622-.732015-.55553-.926042-.21166-.194027-.48496-.290938-.8201-.290938m35.85104.05271c-.21166 0-.39677.0441-.55552.132291-.49389.246944-.74104.608957-.74104 1.085205 0 .176389.0354.334829.10594.47594l5.60896 11.827185c.15875.3175.33514.546703.52916.687814.19403.123472.44118.185001.74104.185001.54681 0 .9524-.290732 1.21698-.872815l5.60896-11.827185c.0882-.176388.13229-.344061.13229-.502811 0-.229305-.0615-.431843-.185-.608232-.12346-.194027-.29986-.344268-.52916-.450102-.1764-.08819-.37945-.132291-.60875-.132291-.22931 0-.44979.06205-.66146.185518-.19403.105833-.34375.264274-.44959.47594l-4.55062 9.921875-4.60386-9.921875c-.10583-.211666-.25607-.370107-.4501-.47594-.19403-.123472-.39656-.185518-.60823-.185518m21.16667 2.116666c1.16416 0 2.10764.35278 2.83083 1.058334.7232.705554 1.16417 1.649549 1.32292 2.831351h-8.81032c.21167-1.181802.71418-2.125797 1.50792-2.831351.81139-.705554 1.86101-1.058334 3.14865-1.058334m-30.87719.105937c.88194 0 1.6757.220488 2.38125.661458.7232.423333 1.28775 1.014548 1.69344 1.773019.4057.75847.60875 1.605037.60875 2.539896 0 .93486-.20305 1.781427-.60875 2.539897-.40569.740831-.97024 1.33153-1.69344 1.772502-.70555.423332-1.49931.635103-2.38125.635103s-1.68441-.211771-2.4076-.635103c-.70556-.440972-1.27011-1.031671-1.69344-1.772502-.40569-.75847-.60823-1.605037-.60823-2.539897 0-.934859.20254-1.781426.60823-2.539896.42333-.758471.98788-1.349686 1.69344-1.773019.72319-.44097 1.52566-.661458 2.4076-.661458"/></svg>